/* XPM */
static char *_ecc7bdaeb78465bb9b7389edf524b0f9qdr2aHGJbP93o5s[] = {
/* columns rows colors chars-per-pixel */
"64 64 242 2 ",
"   c #060807",
".  c #070908",
"X  c #0A0B0A",
"o  c #0F100E",
"O  c #14110E",
"+  c #0E1213",
"@  c #141513",
"#  c #191612",
"$  c #151817",
"%  c #1C1A15",
"&  c #15191A",
"*  c #1C1C1A",
"=  c #1C1F1F",
"-  c #221B15",
";  c #241D19",
":  c #24221C",
">  c #2B241D",
",  c #32261D",
"<  c #1C2425",
"1  c #1C2D36",
"2  c #232523",
"3  c #2C2A24",
"4  c #282A28",
"5  c #332C23",
"6  c #3C2D24",
"7  c #302F29",
"8  c #2B302E",
"9  c #37332B",
"0  c #2D3333",
"q  c #383936",
"w  c #422F23",
"e  c #43342A",
"r  c #463428",
"t  c #4A362B",
"y  c #4C3A2D",
"u  c #533729",
"i  c #523A2D",
"p  c #473D33",
"a  c #543D31",
"s  c #5B3F31",
"d  c #613F2F",
"f  c #3A403D",
"g  c #5D402F",
"h  c #45423B",
"j  c #49443A",
"k  c #5C4234",
"l  c #57463B",
"z  c #634335",
"x  c #684837",
"c  c #654A3A",
"v  c #6B4D3C",
"b  c #704E39",
"n  c #714D3B",
"m  c #74513D",
"M  c #7B533D",
"N  c #2D3D41",
"B  c #3D4342",
"V  c #3C434A",
"C  c #374D5A",
"Z  c #355168",
"A  c #454846",
"S  c #4D4B44",
"D  c #4C4E4A",
"F  c #514E47",
"G  c #4E5047",
"H  c #4E514D",
"J  c #52534C",
"K  c #59554B",
"L  c #5A554C",
"P  c #474F52",
"I  c #4E5354",
"U  c #4F5559",
"Y  c #515554",
"T  c #555853",
"R  c #5C5B53",
"E  c #505659",
"W  c #535B5C",
"Q  c #595E5D",
"!  c #685849",
"~  c #755442",
"^  c #775146",
"/  c #7B5642",
"(  c #7A5946",
")  c #625D54",
"_  c #6F5C54",
"`  c #5C615F",
"'  c #76614D",
"]  c #64635B",
"[  c #67645A",
"{  c #786A5B",
"}  c #575E61",
"|  c #5B6263",
" . c #5D6466",
".. c #576168",
"X. c #5C656B",
"o. c #5E666A",
"O. c #5E686D",
"+. c #576570",
"@. c #656766",
"#. c #6C6B64",
"$. c #726D64",
"%. c #756D66",
"&. c #767266",
"*. c #74736C",
"=. c #7B756C",
"-. c #7C796E",
";. c #697473",
":. c #777772",
">. c #7C7B73",
",. c #A63D06",
"<. c #A3431C",
"1. c #835B45",
"2. c #8B5248",
"3. c #885A48",
"4. c #87634B",
"5. c #94634E",
"6. c #8A6953",
"7. c #936B54",
"8. c #9B6A54",
"9. c #996A57",
"0. c #8D725C",
"q. c #9B725A",
"w. c #A26C56",
"e. c #A7765A",
"r. c #A4735D",
"t. c #AB745C",
"y. c #B17B5E",
"u. c #83786C",
"i. c #987E6B",
"p. c #837D73",
"a. c #837E78",
"s. c #AA7862",
"d. c #B37D63",
"f. c #B27968",
"g. c #B37E73",
"h. c #7E817D",
"j. c #90816C",
"k. c #868276",
"l. c #84847B",
"z. c #8A867B",
"x. c #8C897D",
"c. c #998771",
"v. c #918A7D",
"b. c #B58265",
"n. c #B7846A",
"m. c #AA8976",
"M. c #697E88",
"N. c #598E99",
"B. c #61B8DC",
"V. c #878985",
"C. c #8D8C82",
"Z. c #928E82",
"A. c #988F83",
"S. c #8D908D",
"D. c #949185",
"F. c #9A9385",
"G. c #93948B",
"H. c #9A958A",
"J. c #9C9A8D",
"K. c #8F9390",
"L. c #949794",
"P. c #9C9C93",
"I. c #9C9E99",
"U. c #A69886",
"Y. c #A39C8E",
"T. c #BD9386",
"R. c #A29E92",
"E. c #9DA09B",
"W. c #B2A38E",
"Q. c #A5A195",
"!. c #AAA395",
"~. c #A5A49B",
"^. c #AAA69A",
"/. c #ADAA9D",
"(. c #B3AC9D",
"). c #B8AA98",
"_. c #BAB19D",
"`. c #9CA6A6",
"'. c #A5A9A6",
"]. c #ADACA2",
"[. c #B2AEA2",
"{. c #AEB1AE",
"}. c #B5B2A4",
"|. c #BAB4A4",
" X c #BCB8A6",
".X c #B5B4AA",
"XX c #BAB6AA",
"oX c #BDBAAC",
"OX c #B5B8B4",
"+X c #BDBDB2",
"@X c #CAB79E",
"#X c #C1B6A4",
"$X c #C3BAA6",
"%X c #C2BCAC",
"&X c #C9BFAB",
"*X c #C2BEB1",
"=X c #C8BFB0",
"-X c #BFC0B6",
";X c #BFC1B9",
":X c #C6C1AF",
">X c #CBC2AE",
",X c #D3C5AF",
"<X c #C4C2B4",
"1X c #CBC4B4",
"2X c #CEC8B5",
"3X c #C4C5BA",
"4X c #C9C7B9",
"5X c #C7C8BE",
"6X c #CCCABC",
"7X c #D2CAB5",
"8X c #D6CAB5",
"9X c #D3CDBB",
"0X c #D4D0B7",
"qX c #D6D1BD",
"wX c #DBD2BC",
"eX c #BBC3C1",
"rX c #C6C9C5",
"tX c #CECDC2",
"yX c #D1CEC2",
"uX c #D4D2C4",
"iX c #DAD5C3",
"pX c #DDD9C5",
"aX c #D8D5C9",
"sX c #DCDACC",
"dX c #CFD6D3",
"fX c #D9DBD3",
"gX c #E3DBC4",
"hX c #E5DAC4",
"jX c #E3DECB",
"kX c #E1DFD1",
"lX c #E6E1CD",
"zX c #E9E1CC",
"xX c #E5E3D3",
"cX c #EBE6D2",
"vX c #EBE9D6",
"bX c #EDEBDA",
"nX c #F1EBD5",
"mX c #F2EEDC",
"MX c #F5F2DD",
"NX c #EAF0E7",
"BX c #F5F8E6",
"VX c #F5FDF5",
/* pixels */
"<.' o.O.O.O.o.| o.o.| | |  .| | | | o.o.+.P Q o.o.o.X.X.X.o...| | | | | | | } } } } } W W W W E A q D H H I I H H I I Y n <.,.,.",
"@.O.O.O.O.O.O.o.@.@. .| |  . .| | | o.O.+.P } o.o.O.O.O.X.O.o. . .| | | | | | } } } W W W W W E A q D H H I I I I I I I I L n <.",
"O.O.O.O.O.O.O.o.o.@. .|  . . . .|  .o.O.+.I | o.o.O.o.o. .| @.] R J D D F J J Y Q | } W  .| W W A q H H H I I I I I I I I I I K ",
"O.o.o.o.o.O.o.o.o.O. . .o.o. . . . .o.O.+.I | @.@.@.` R D F K K L K j q 9 9 9 9 h J Q W W W W W A q H H H Y W I I I I I I I I I ",
" . . .| o.o. . . .o.o.O.@.o.o.o. . .o.o.o.I ` | @.R S j j j j p j 9 5 5 3 3 3 > 2 3 h Y Q W W W A B H H J Y W W Y I I E E U I I ",
"| | | |  . . . . . . .o.o. . . . .| |  ...I ` ` R j 5 5 9 5 5 5 9 3 : : : 2 : % ; : 3 9 D W W W B B I J Y Y Y Y Y I I E E E I I ",
"| | | | | | | | | | | |  .| |  . .| |  .| I R J q > 3 5 5 9 e e e 5 : - $ % % $ # % : : 7 D W W B B J J J Y Y I I I I E E Y I Y ",
"Q Q Q Q Q ` | |  . . . . . .| | | | | | ..P H 9 3 > 5 p ~ 6.7.6.4.~ l y > % # # $ $ * % ; 8 D Y q B H G H Y I I I I I U U I I I ",
"2 2 2 2 2 2 2 q B B B B B B @.K.P.I.I.I.I.C.S > 5 6 l 7.s.n.b.y.y.s.e.7.1.~ c i > # # * : : 3 @.V.C.G.G.G.G.G.G.G.G.G.G.G.G.G.S.",
"              $ 0 4 4 8 0 0 :.}.4XsXxXvXbXoXp > 5 c 7.y.b.b.b.d.y.d.d.t.t.e.w.8./ w ; % % : : R 4XcXbXbXvXvXcXxXxXxXkXfXsXaXtX<X",
"            . & q 0 0 0 0 0 *.H.P./.oX4X<X-.> - , ( e.y.b.b.b.d.y.d.y.t.t.e.w.w.w.6.v w # # % q x.1XxXxXxXxXfXfXsXaXtX5X+X.X~.L.",
"      .   . . $ & . . . . . R H.Z.D.J.R.-.j - # 6 4.e.y.b.n.n.b.d.d.d.d.t.t.e.e.w.8.7./ , O # : #.R.tXfXdXdXrXrX;XOX{.'.I.G.l.*.",
". . .       . & 2 & & & & & R J.D.C.C.-.j > # # y 7.e.7.7.7.q.s.d.n.d.d.d.t.r.q.7.6.6.7.v - O # J C..XrXeXOXOX{.'.E.L.V.l.:.#.[ ",
". . . . . . . $ 8 4 4 4 4 < J P.D.C.z.[ j 2 O - v 6.c t e e w a ~ q.r.s.8./ s t e e r l ( w O @ D V.`.OX{.'.`.L.K.V.h.:.#.@.] R ",
"    . . . .   @ $ X X X X + q J.H.C.x.) l l # , 4./ k c v c a i z 4.q.q.3.k t w t a a y l k # o F S.`.`.I.L.S.V.h.>.*.#.] R R J ",
"B f q 0 8 4 $ & + . . . . @ q G.J.D.z.[ l m 6 6 6.1.x u t 6 e k z 3.r.r.3.s i y 6 e e s ~ ~ ; , _ C.K.K.V.V.h.>.*.#.@.] R R J J ",
";.;.;.;.M.M...C & @ @ X . + 8 C.J.D.k.) l n s y q.q.6.( ~ ~ ~ ~ M 5.t.t.7.m m ~ v v v ~ 4.( w k ' >.h.h.h.>.:.*.#.@.] R R J J J ",
"X o o @ $ $ + & & @ @ $ X . $ l.P.D.C.$.p n d k b.n.b.r.8.8.8.8.w.s.d.e.r.8.8.5.5.5.5.7.7.4.i ^ ^ $.*.:.*.*.#.#.@.] ] R T J J F ",
". . . . . .   @ $ @ @ @ @ X # >.Q.H.x.&.e k z k b.n.n.n.s.t.t.e.t.n.n.t.t.q.8.r.t.r.r.r.q.4.s x e S #.*.*.*.#.#.@.] ] R J J J F ",
". . . . . . . $ 4 4 2 # #.I.P.!.Q.J.$.j 9 r ~ z s.b.n.f.f.t.w.w.d.n.n.f.s.r.5.8.r.s.s.r.8.4.c a 5 j ] *.*.*.*.#.#.] ] R L J J D ",
". . . . . .   $ 8 8 4 # >.6X4X}.Q.J.$.q 9 y v s 0.r.r.r.w.8.w.5.3.2.8.5.1.1.5.5.8.w.8.8.6.~ v t 9 F [ >.>.-.=.*.$.#.] ] R J J D ",
". . . . . .   $ 4 < < @ G h.x.D.J.J.z.&.K l _ a ~ 4.5.3.1.1.1./ x z x z i x 3.5.3.3.3.1.~ a l p F R $.z.k.k.h.>.=.$.#.[ R J J G ",
". . . .       & 0 4 2 # J C.C.Z.J.J.D.x.&.&.F.&.y c ( / u w y i a z ~ c t t k z g n 1.n a p ! S { [ k.C.C.x.x.z.k.-.$.[ ] R J G ",
". . . . . .   $ q q 9 # *.vXxX6X^.Q.Q.Q./.<XpX%Xl a z v u a z n ^ 2.2.2.^ v z i y v ~ s t 9 l %.U.Y.Q.H.H.H.D.D.x.k.-.$.] R J G ",
"        . . . $ 2 2 2 # D ~./.].^.Q.!.%XiXgXnXpX{ y y v n ( 3.3.3.2.2.2.2.2.1.( m m z t e e j z._.>X2XoX^.Q.R.J.H.Z.z.-.#.] L J ",
"    . . . .   $ < < < @ N N.N.N.`./.6XpX0XvXvX1XU.! 6 i k x ( 4./ x s z ^ 1.3./ x x i 6 p ! ! &.Y.$X>XwX6X}./.^.Q.J.D.k.=.[ R J ",
"              & 1 1 1 & C B.B.B.{.uXqX>XvXMXjX|.U.m.y > 5 r k / 4.1.~ ~ ( ( ~ k r 6 , 5 ) p.u.{ F.$X>X>XpXqX X|.(.^.Y.D.k.$.R J ",
">.-.=.*.*.$.#.J = & $ & 4 Z Z M.dXsX_.8XnXcXiX).#X@X4., - ; 5 r a z k a a t r 5 - % 5 p S &.A.j.j._.pX0X7XlX9X%XoX|./.Y.v.-.[ J ",
"mXmXmXmXmXmXNXQ.$ @ $ & = 0 :.fXbX$XgXMXcXjX9X).>X@X7.x 6 % % % ; > > ; ; % % # - 5 a y ! p.x.!.U.|.pXlXwXhXgX1X:X%X X(.Y.z.#.R ",
"bXmXbXbXbXbXmXP.4 * * * < ;.NXVXiXU.pXnXzXgX9XW.>X@X7.4.c 6 > ; % # # # # # - > 6 a i r u.Y.J.!.(.&X9XpXwXhXgX:X:X:X%X|./.H.-.J ",
"Z.Z.Z.C.x.x.z.h $ & * * 0 eXBXMXwX>X2XjXgXiX1X#X8X8Xi.5.4.v k y e 6 5 > , 5 w a k k u l J.!.Y.^.&X2X4X9X9XjX9X X|.|.|.|.}.^.v.Y ",
"$ $ # $ * q J D J J R :..XNXMXnXjXjXgXwXwX7X$X XwX8XW.6.4.4.( ~ c k k a a k z v v z u { !.!._.>X<X%X<X4XiXiX9XpX6X}.D.x.C.x.:.V ",
"X . X X o R XX+XtXxXNXVXVXBXmXgXjXgXgXqX0X2X|.(.8X>X>XU.4.4.1.1.M v v v v v v m n c ' U.(.%X&X}.XX+X*X4XiX9X9XlXnXcX<X~.I.P.L.K.",
"$ # X X . q 3XNXVXVXVXVXVXBXxXqXqX2X:X2X9X6XoX!.(.,X&X&Xc.1.1.1./ / / / / ~ m ( 0.c.U. X&X!.J.^.+X3X<X9XuX<X9XlXnXnXMXBXBXbXxXjX",
"2 2 * . $ H.BXVXVXBXBXBXBXBXlXqX6XoX}.<X4X4X%XJ.p.|.$X&X#X{ n M m m m m n ~ 0.m.W.).&XoXH.&.Y.+X3X6X4XuXiX%XuXxXcXcXnXnXMXMXMXbX",
"2 : * % D.MXBXBXMXnXMXMXmXcXiX4X1X4XoXXX%X*X<XQ.z.Y.(._.$XW.6.~ x x x m 0.U._._.$X&X[.F.u.v.XX5X6XtX6XqXiX%X9XxXcXzXnXnXnXmXmXMX",
"# # $ z.cXzXcXnXjXjXMXbXjXpX6X4X<X1XoXXX+X+X<X/.H.v.(.|.|. X&X).c.6.i.W.$X$X#X$X|.Q.J.A.A.^.3X6X6XyX6X6X7X1X2XjXlXjXcXcXcXnXnXnX",
"O X L cXjX7X9X9X9XlXxXuX6X6X4X6X6XtX+XXXoX*X<X[.R.x.Q.|.%X&X&X#X X(.(.(.!.Y.Y.|.|.!.^.(./.XX4X3X4X4X1X2X7X9X<XuXsXpXlXlXlXcXcXcX",
"o : |.nXlX2XoX}.6XjX6X<X3X6X4X4X6XtX3X+XXXoX<XoXQ.H.H.!.^.XX$X#X|.(.(._.|.#X$X1X<X$X%X&X|.*X<X<X<X&X1X4X4XoXXX4XuXpXjXjXjXlXlXlX",
"* K qXjXjXqX|.^.XX1XoX+X<X4X4X4X6X6X3X3X.X].XXoXQ.D.D.^.^.(.}.XXoXoXoX%X*X*X*X<X<X<X1X%X(.oX*X*X<X<X}.}.+X<X+X4X6X6XuXaXaXpXiX9X",
": D.iXiXiX9XoX^.}.oXXXoX+X<X<X6X3X3X3X3X+XOX].].}.Q.Q./.[.|.XXXX.X[.[..XXXoXoX&X%X[.Q.(.Y.%X<X<X3X+X].+X6XtX3X6X6X<X3X6X6X6X1XXX",
"2 |.9X7X2X4X*X(.(.}.XX+X+X+X+X3X3X3X3X5X+X+X.X~.}.}./././.}. XXXXXXXXXoXoX%XoX&X*Xp.$.D.!.*X<X3X<X3X-X5XtXuX6X4XtX3X+X+X<X+XoX}.",
"L 2X2X<X<X<X<XXX(.}.oX+X1X3X+X+X3X;X3X5X3X+XOX[.}.}.[./.^.^.}.oX%X*X*X%X$XoXoX*XoX) =.v.XXXX+X+X5XtX5XtXtXtX3X3X5X.X+X+X*XoXXX}.",
"z.9X2XoXoX%X%X*X|.|.*X+X1X3X<X6X3X3X5X5X3X3X;X.X<XoX}./.J.R./.|.*X*X%X[.H.oXoX*X[.F p.J.XXXX<X3X3X5X5X5X6X6X3X+X3XXX+X+XoXoX}.}.",
"|.1X9X4XXXXXoXoX|.}.*X*X3X<X6X6XtXtXuXtX5X3X5X+X<X<XXX}.Q.Q.[.[.|.oX%Xk.p.<X%X<XH.J z.~.+X3X3X3X<X3X5X5X5X5X3X+X3X+X+X+XoXXX}.+X",
"1X1X1X4X<X%XoXoXXX[.*X*X1X<XuXuXsXyXaXyXtX3X5X+X-X3X+XXX}.!.[.|.|.XXXX[ D.x.[.1XC.@.P..X3X5X3X3X;X3X3X3X3X3X-X.X3X.X+X+XXX}.oX*X",
"=X9X1X%X%X%X*X*XoX}.oX*X3X6XaXaXsXyXaXtXuX3X3X+X-X3X<X+X}.Q.p.[ R.-.R.K L Z.oX*XJ.*.~.+X3X5X3X-X;X3X3X3X3X5X3XoX+X.X.XXX[.}.+X+X",
"9X9X9X<X%XoXoXoXoX}.XX%X4XaXaXuXuX6XuXtXuX3X<X+X+X3X3X-XoXQ.h T $.R -.S H.XXR.F./.>.I..X3X3X;X-X-X-X3X5X5X6XtX<X+X.X[.XX[.oX+XoX",
">X>X$X<X<X$XoXoXoX}.}.*XyXsXyXuXtX4XuXyXuX6X<X3XXX-X<X<X+X].J #.S R F D l.) [ J.XX=.I..X3X3X;X+X+X;X3X5X5X5X6X3X<X[.].}.XX*X+XoX",
"&X&X1X$XoX%XoXXX|.[.(.<X9XyX6XtX6X3XuXuXuXtX3X6XoX<X+XXX-X+Xl.#.] j R ) >.p.XX[.p.*.I.{.3X3X3X3X3X3X3X3X3X5X5X5X3X}.].[.+X+XoX+X",
"8X X&X9X2X%X$X%XoX/.!.%X4X4X6X6X3X3XyXyXyXyX6XtX+X+X<XXX-X3X/.R.Q.J.[ $.x.J.4XQ.S l.I..X;X3X5X5X5X5X5X5X3X5X3X3X6XXX~.}.*X<X<X<X",
"jX>XXX1X9X9X2X<X*XoX(.XX%X<X4X4X3X3X6X6X6XyXyXtX3XoX+XoX+X3X].R.(.(.=.=.z.A.1XQ.F V.I..X-X5X5X5X3X3X3X3X5X3X3X3X3X].^.oX<X<X<X<X",
"hXgX>X$X&X1X7X4X*X%X|.}.%X<X<X<X3X4X6X4X4X6X6X6X6X<XoX+XoX3X].[ J.|.v.Q.z.Z.4X^.*.>.~..X3X5X5X3X3X3X3X5X5X3X3X<X+XQ.^.}.oX<X4X6X",
"7XgXwX&X&X1X2X2X1X%XXX}. XoX%X*X<X3X6X4X4X6X6X4X6X6X+X+XXX+X^.p k.|.R.=.%.U.1XR.R S ~..X3X3X3X3X5X3X3X3X<X+X+X<XXXJ.^.%X<X<X<X*X",
"$X>X8XqX1X2X7X2X<X%XoX(.[.XXoXoXoX<X6X4X4X4X4X3X3X4X3X+XXXXXI.0 ) z.k.p.U.).W.m.=.F ~.XX<X3X3X3X3X<X+X].I.I.].+X[.Q.oX<X<X<X*X*X",
"$X$X&X>X7X>X&X<X*XoXXX[.!.[.XXoXoX*X4X<X<X<X1X1X3X3X3X*X}.}.P.9 >.!.(.^.U.g.g.s.i.=.P.}.+X3X3X<X<X<X+X].P.L..XoX^./.%X<X<X<X<X*X",
"#X X X$X X X X X%X$X|./.R./.[.oXXXoX*X<X*X*X<X<X3X1X<X+X}..XP.q k.Y.p.U.m.f.T.m.l q l.].oX<X<X<X<X*X<X+X].~.XX}.P.[.*X<X<X<X<X*X",
",X&X_._.|.|.}.(.}.|.|.(.Y.oX[.[.}.}.oX*X*X*X*X<X<X<X<XoX}.oXG.0 =.{ p.U.W.#X&X!.F S C.].XX<X<X<X<X*X+X+XoXXXXX^.J.}.%X<X<X=X*X*X",
",XhXwX>X#XoX%X%X$X$XoX X(.|.4X%X}././.XX*XoX%X<X<X<X<X%XXXoXz.8 [ $. X#X(.U.!.A.[ p @.].}.*X*X<X<X*X+XoXoXXX[.J.Q.XX%X*X*X*X*X*X",
"&X,XhXhXhX7X1X&X&X&X&X$X(.Y.%X6X6X*X}.].oX%XoX*X*X*X<XoXXX.X>.9 ) =.|.F.v.v.z.Y.*.; q ~.[.oX*X*X*X*XoXXXXX[.^.Q.R./.|.%XoX$X&X1X",
",X8XwXwXwXwX9X1X>X:X$X|.^.z.Z./.1X9X6X*X|.XXXXoXoX*X<XoXXX/.] j =.) k.=.p.A.|.|.v.2 A ~./.XX%X*XoXoXXX}.[./.XX}.[.oX%X1X4X2X9X9X",
",X,XwXwX8X8X1X>X&X%X X}.^.l.=.p.Z.(.4XyX4XoXXXXXoXoX*XoX}.Q.K ) -.K %.A._.&X>X(.!.L 9 V./.}.oXoXXXXX}./.].oX<XR.(.%X&X1X4X2X9X9X",
"_.$X>XwXzXgXwX7X:X$X X}.^.z.%.p.>.*.H.oX6X4X*XoXXXXX%XXX}.H.j &.[ F A.&X&X&X>X(.!.v.j [ ^.[.|.}.[.[.].}.<X4XQ.=.(.oX%X&X<X1X2X9X",
").).#X#X$X&X$X_.(.(.!.Q.R.D.*.=.*.*.a.x.^.*X4X4X%XXXoX}.}.C.j { ! K (.&X$X&X>X|.!.F.u.=.R.^.}.}.].].oX5X6X/.>.] H.^.[.XX%X&X<X4X"
};
