/* XPM */
static char *_f933cb9c8024fb1b04152451f4f8628MiS1wvh68NzSmjhI[] = {
/* columns rows colors chars-per-pixel */
"64 64 255 2 ",
"   c #0C050A",
".  c #130203",
"X  c #170605",
"o  c #1B0D05",
"O  c #140C0B",
"+  c #1A0D0A",
"@  c #181209",
"#  c #1D130D",
"$  c #0F0C10",
"%  c #0C1B17",
"&  c #1C1512",
"*  c #161916",
"=  c #240C04",
"-  c #370A03",
";  c #241304",
":  c #23140B",
">  c #2B1508",
",  c #25190E",
"<  c #2B1A0C",
"1  c #38160A",
"2  c #331B0B",
"3  c #231A14",
"4  c #271A17",
"5  c #2C1C12",
"6  c #321C13",
"7  c #351916",
"8  c #3B1C13",
"9  c #0D211C",
"0  c #17221D",
"q  c #2C200C",
"w  c #3A240B",
"e  c #24231C",
"r  c #292418",
"t  c #2B231C",
"y  c #342215",
"u  c #3B2315",
"i  c #33241C",
"p  c #3B251A",
"a  c #35291B",
"s  c #3C291C",
"d  c #1A2724",
"f  c #1C312E",
"g  c #1F3836",
"h  c #2B2523",
"j  c #292926",
"k  c #352925",
"l  c #342B24",
"z  c #3B2C24",
"x  c #27322C",
"c  c #3C332B",
"v  c #383428",
"b  c #233936",
"n  c #3B3933",
"m  c #430B04",
"M  c #4B0A03",
"N  c #490907",
"B  c #530903",
"V  c #5B0A04",
"C  c #540909",
"Z  c #5B0A0A",
"A  c #461609",
"S  c #57190B",
"D  c #441914",
"F  c #561B17",
"G  c #610A06",
"H  c #640909",
"J  c #6B0B0C",
"K  c #6D1714",
"L  c #681A1A",
"P  c #4A270B",
"I  c #57270C",
"U  c #4D320D",
"Y  c #482617",
"T  c #42251B",
"R  c #442B1C",
"E  c #4B2C1C",
"W  c #572A17",
"Q  c #4A3318",
"!  c #57351B",
"~  c #662A15",
"^  c #6F3017",
"/  c #653619",
"(  c #751F24",
")  c #442D21",
"_  c #4B2D22",
"`  c #492825",
"'  c #542D24",
"]  c #453124",
"[  c #4C3324",
"{  c #44372B",
"}  c #4C3529",
"|  c #4D3A2B",
" . c #543324",
".. c #5C3323",
"X. c #573827",
"o. c #5B3A25",
"O. c #533629",
"+. c #533A2B",
"@. c #5B3C2C",
"#. c #443B33",
"$. c #493C34",
"%. c #583D31",
"&. c #662622",
"*. c #653826",
"=. c #643B2B",
"-. c #6A3D2C",
";. c #76332D",
":. c #763D29",
">. c #663E32",
",. c #4A401F",
"<. c #6E4F1B",
"1. c #5C432B",
"2. c #4B443B",
"3. c #5A4435",
"4. c #584739",
"5. c #6D432B",
"6. c #68452A",
"7. c #75482C",
"8. c #765726",
"9. c #634333",
"0. c #6B4433",
"q. c #694B39",
"w. c #734633",
"e. c #744A35",
"r. c #734C3C",
"t. c #794A38",
"y. c #67523C",
"u. c #785338",
"i. c #7B533C",
"p. c #7B632D",
"a. c #394D4A",
"s. c #594D43",
"d. c #4B524C",
"f. c #5B5347",
"g. c #664C42",
"h. c #774843",
"j. c #675648",
"k. c #795845",
"l. c #6A5C52",
"z. c #785C53",
"x. c #79644C",
"c. c #6B6557",
"v. c #786758",
"b. c #5E6460",
"n. c #797567",
"m. c #727268",
"M. c #83211E",
"N. c #981E23",
"B. c #892524",
"V. c #992427",
"C. c #8E3730",
"Z. c #993635",
"A. c #A7282C",
"S. c #B42B2D",
"D. c #B02D32",
"F. c #AA3437",
"G. c #B93638",
"H. c #CB2D33",
"J. c #C73538",
"K. c #CB3539",
"L. c #D6373C",
"P. c #875A1E",
"I. c #94661B",
"U. c #87473A",
"Y. c #974837",
"T. c #83533C",
"R. c #86583A",
"E. c #AF463E",
"W. c #98772A",
"Q. c #8E7031",
"!. c #A4782C",
"~. c #A57733",
"^. c #DC3C41",
"/. c #E43D43",
"(. c #E93E45",
"). c #884847",
"_. c #9B4946",
"`. c #875944",
"'. c #845C4B",
"]. c #8C5E4B",
"[. c #915451",
"{. c #B0504E",
"}. c #A65559",
"|. c #89644A",
" X c #95684B",
".X c #9B6B4B",
"XX c #8C6552",
"oX c #876958",
"OX c #946B54",
"+X c #996C56",
"@X c #967351",
"#X c #99745A",
"$X c #AB6F51",
"%X c #A67859",
"&X c #9E5D64",
"*X c #B85B62",
"=X c #866962",
"-X c #946C65",
";X c #897868",
":X c #967867",
">X c #927B72",
",X c #A27B63",
"<X c #A87A66",
"1X c #B0736E",
"2X c #D54E4E",
"3X c #E74247",
"4X c #C66A6E",
"5X c #7E8879",
"6X c #998433",
"7X c #A88637",
"8X c #B48836",
"9X c #C18D3A",
"0X c #A3964B",
"qX c #B08D50",
"wX c #B4835B",
"eX c #99826C",
"rX c #888577",
"tX c #988575",
"yX c #A78369",
"uX c #AC836C",
"iX c #B58667",
"pX c #A98877",
"aX c #B88A75",
"sX c #B49275",
"dX c #B89478",
"fX c #C89753",
"gX c #D0A155",
"hX c #C38D68",
"jX c #C99669",
"kX c #CD946C",
"lX c #C99778",
"zX c #D59D79",
"xX c #C3A07C",
"cX c #D6A17B",
"vX c #D8A279",
"bX c #988F85",
"nX c #969586",
"mX c #A8968B",
"MX c #AC958C",
"NX c #B69684",
"BX c #9BA293",
"VX c #A5A799",
"CX c #B7A79A",
"ZX c #B2B5A7",
"AX c #C79983",
"SX c #D79A83",
"DX c #DAA784",
"FX c #D1A990",
"GX c #E3B18A",
"HX c #E3B28E",
"JX c #C4BCAE",
"KX c #E5BCA5",
"LX c #BAC5B5",
"PX c #CDC3B3",
"IX c #EECAA6",
/* pixels */
"NXAXdXuX,X#X#X#XoX3.+.,.| | 4.j.4.$.#.#.#.$.k j h t r r r r a c t t c { i 5 i k k z c c k j e e e e t k #.#.c c v _ -.)._._._._.",
"FXAXuX<X%X+X#X#XoXy.3.4.4.4.j.oXz.3.} { $.2.t t k v c c #.2.s.$.z $.#.c t 4 k c z k c c v v j t k 2.l.c.n.v.l.4.$.+.t._._._._._.",
"dXiX<X,X#XOXXXXXoXy.j.v.v.y.x.NXsX:XoXk.3.4.l.c.n.n.;Xc.m.;Xl.#.2.s.n c r r k n c z z z k { #.#.f.rXCXCXMX>XoXv.v.k.e.U.:.;.:.>.",
"<X<X+X].`.w.*.=.r.k.x.tXtXy.x.sXsXyX:X#Xy.j.rXn.c.n.n.s.f.n.4.#.2.$.c #.c { s.l.f.f.j.j.j.l.l.l.=XCXPXPXFXpX:X-X:XXX-.*...' _ [ ",
"%X Xw./ 5.w.W Y o.|.x.x.x.q.|.sX,X#XOX|.y.4.n.c.l.n.n.b.m.5Xc.j.j.z.z.l.l.l.l.z.v.v.oXz.z.oXv.g.oXFXKXKXFXdXpXuX<X<Xk.0.e.e.@.O.",
"%XT./ W t.XX-.=.r.XX|.k.k.u.,XOX5.u.e.o.3.v.nXnXBXZXZXZXLXLXtXoX>X[.).>X;X;XrXbXbXbXMX>XpXpX;Xq.|.dXKXHXAXdXuXuXuX<XOXXXXXXXr.9.",
"%XR.7.t.].,XXX'.XXOX|.|.#X#XsX#Xi.XXk.6.y.mXJXZXZXZXZXZXZXPXpX-XNX}.}.NXbXmXCXVXmXmXMX>XpXNXoXo.u.%XlXlXiX%X.X.X+XOXOXAXFXNXOXr.",
"<X<X%X].+X,X].e.e.i.k.XXyX,XuXyX#XyXOXk.j.v.n.c.c.5Xm.m.5XLX>X&X1X[.}.NXbXmXbXMXmX1X-X-XoX:Xr.! 7.@X%X%X#X.X X X`.T.XXFXIXHXdX,X",
"+X<X+Xt.t.w.=.! W ! 0.u.u.i.|.u.u.k.q.q.j.c.n.rXnXVXVXVXZXLX>XXXoXh.&X-X=XoXz.z.z.).).'.k.e.o.*.R..X%XiX$X.X.X.XR.i.`.AXHXFXlXaX",
"`.T.:.*.*.*.*...Y Y ! 5.6.6.6.! 1.o.E E | 2.c.nXBXBXBXBXnXnXv.oX=X-X1X>X>X-Xz.g.} T p 8 8 Y 5.i. X%XiX%XT.7.7.T.:.W t.lXFXAXlXiX",
"'.-.W W *.-.-.-.*.W 6.sXxXsX6.! q.9.[ ] $.$.s.c.m.c.c.c.n.m.n.>X>X-XXXoXoX=X:X-Xj.) : o = ' i.R.$XiX%X7.I A ~ 7.W P 5.%XOXXX%X<X",
"z.@.' *.r.r.0.0.5.! ! dXIXIXp.w +.1.[ 4.CXJXZXZXVXnXn.v.;X;X;Xz.g.g.=.X.X.@.g.z.=X=Xg.p < E -.`.wXiX X5./ ~ 7.].:./ w.].t.t. X`.",
"3.} E  .r.r.0.9.=.! P 6.AXsXx.w > 2 y l.CXVXZXZXPXPXVX;XoXx.g.@.>.0.r.0.>. .Y _ >.z.=X>X:X>.t..XwXwX%X XR.R.%X<X`.t.].%X+X%X<Xt.",
"| u T E >.q.0.9.o.Q w > Q 1.#Xy.2 > u $.n.rXrXrXrXtX;XoXr.o.6.XXyXpXuX<XOX`.=.Y Y @.h.k.NX-X`.%XwXwX%X.XT.R.<XuX`.e.].<XdXAXaXT.",
"{ < u T E  . .E Y w 2 = > [ oXx.1.[ ] z s.n.;XrXrX;Xx.k.o.6.yXFXHXFXlXdXiXyX:Xk. .Y ..=.r.'.`.%X%X%X X7.5.T. X].w.-.-.T.+X%X XT.",
"{ 5 y p u 1 1 1 2 w 2 ; ; Q j.l.g.3.z i k s.n.rXn.v.y.@.6.uXHXKXHXDXlXdXiXiXuX,XXX*.Y O.o.=.*.w.OX.X7./ -.t.w.*.*.*.*.w.'.`.*.-.",
"z i y y p 8 1 Y Y Y w ; ; a 3.j.l.4.s t t k s.c.c.v.4.X.OXDXDXDXvXjXiXiX%X%X,X:X+X'.E T _ ' E 6.].].7.:.5.0.*.....*.e.`.`.t.*.*.",
"z i 5 6 ) _ E E E E p , , a c $.l.j.$.k 3 4 k #.f.v.3.9.,XdXjXjXwX%X%X%X.X X X].`.|.=.6 8 p 8 o.`.T.7.7.e.w.-.*.*.=.].,X'.*... .",
"4.s 5 6 ) +.%.@.@.O.s r r k c c z #.2.2.k 4 h k c 2.%.9.@X%XwXwXwX%X%X.X.X.X X'.i.u.0.2 > 6 > ! `.T.5.7.e.t.t.w.=. .'.,X'.0.@.} ",
"s.s , 3 k $.s.g.g.2.k e e k z z i i k c #.k h h h c %.0.|.@XwXiXiXiX%X@X.X.XOXXX`.u.q.u ; 2 - F [.`.7.5.5.w.w.-...D Y k.k.0.X.] ",
"c 4 * * e v 2.c.f.2.j 0 e h i i i i k k n #.k h t z y.0.@X@XR.u.R.|. X X X XXX'.i.0.9.u ; > = A Y.{.U./ W I I W ! Y 1 Y _ E R a ",
"h * * 0 d 0 j d.d.x 0 0 e h z z i t i h h c k h t z x.k.%XR.6./ W / 5.7.e.7.*...E Y O.R = : = 1 Y.{.Y.^ I P P I ..' 1 2 u s z k ",
"h * d f f b d d x d 0 e j #.$.{ s a i j j j j h 4 a x.|.yXR.6./ W W / 5.*.W A A A u ) ) ; ; o > U.2XE.C.^ W W ! *.=.8 < s #.2.x ",
"h d d f b a.a.b b 0 0 k 2.j.s.2.| c a t h j j t 3 i x.XXyX X7.*.W W *.`.0.W P Y Y Y [ ) ; ; o > U.2X2X{.Y.:.:.-.w.t.T < a { 2.n ",
"4 h f b b b.m.b.d.j e 2.v.v.;Xv.2.{ a t t j j e 3 5 k.#XyX#XR.5./ / T.,X'...Y E E E } _ ; o o > C.3X3X2X{.Y.T.U.).[.' 5 i k v n ",
"4 j x b g a.b.d.a.j #.v.:X:X>Xv.$.z a t t h j t 3 5 y.yXyX%X Xu.u.R.%XuXOX0.o.o.o.@.@.R ; = ; 1 B.H.H.H.J.E._._._.U.' 6 i a e j ",
"h j x b g b b f j n v.tXpX:XoXj.c a a t 3 h h t 3 , @.,X#X@X@X X@X%XiXiXOXw.0.e.r.r.9._ ; = ; 1 B.H.H.H.H.J.{._.Z.B.W 6 r t 3 & ",
"h j x b g g g x v c.tXNXpX#Xk.| z i t r 3 t t t 3 < E XX@X|.|.|.|.@XiXuXOXe.0.r.h.q.@._ ; = ; D Z.K.L.L.L.K.G.E.F.B.' y r t 3 & ",
"j j x b g g a.d.c.tXNXaX#Xi.o.R p i t t r t k k k p  .u.|.R.u.7.7.|.uX<X'.w.=.>.>.X. .p = X = F G.L.(././.L.K.J.G.A.&.y r r 3 & ",
"h j x b g b d.m.bXNXaXOXt.=.1.1.) a a i k $.4.4.4.l.q.5.|.i.7.*.5.i.+XXXr.=...' ' ' _ 2 X X - ( J./.(.(.3X3XL.L.J.F.&.i r 3 3 3 ",
"t j x b b b a.bXMXpXOXw.o.0.x.x.j.l.c.l.l.l.s.4.c.v.@.*.XXT.5.5.i.|.k.6...! E E E _ R > . = A Z.L./.3X3X(././.L.L.F.&.y r 3 3 3 ",
"t h x x x x b.mXNXXX=.*.i.XXoXx.v.>XtX>X=Xj.y.y.l.4.8 *.OXT.w.`.,XpX#X6.o.0.9. .E R ) : X = S F.L.(.3X3X3X/./.L.^.F.&.y 3 3 3 3 ",
"a #.l.j.s.j.tXdX+Xe.0.k.XX|.x.x.x.;X>XoXj.q.j.4.3.p - W ].`.i.#X,X:X|.X.o.9.9.9._ T z : o > F Z.L.(.(.(.3X/.^.L.K.F.&.5 , 3 3 3 ",
"y.eXpXtX:XeXpX<X].|.OX'.r.k.x.v.v.;Xl.@.} y.4.} R > - A -.`.`.k.0.E 8 1 > 1 T O._ s i : : 7 F A.L./.(.3X3X/.L.L.K.Z.W , : 3 3 & ",
"pXpX:XoXk.#XyX#X#X+Xk.o.X.k.x.z.x.l.$.p ) y.1.R p > - - F t.'.k.u.o.1 1 1 8 T ) T 6 t 4 5 8 L A.L././.3X3X/.L.K.J.V.Y , : 3 3 & ",
"eX:XoX1.9.:XyX:XOXe.! E X.q.g.3.+.] p u ] q.} p u 2 - - m &.`.'.k.r.E Y Y R ) ) y 5 r 4 5 8 L A.L./././.(./.L.K.G.B.D : : 3 3 & ",
":X#Xy.Q k.eXyX#X0.W Y  .X.@.+.] s u u p | +.s p u 8 - - m A -.'.h.9. .E R R R T 6 4 4 , 5 8 L A.L./././.L.L.L.K.J.B.8 : , 3 3 & ",
"eXx.[ Q k.:X:Xu.! Y Y E  .} } [ R u p R +.R u s s p - - m m F `.`.-.! E R _ ` D 6 : : , 7 D L A.L./.^.L.L.L.K.J.G.B.8 , 3 4 3 & ",
"v.3.w R k.oXk.o.E Y Y Y [  .} } [ p R } [ u R R s R 1 - m M m -.'.r.*. . .O.` D 7 = : 4 7 D ( A.K.L.L.L.L.L.K.G.S.B.8 3 3 4 3 & ",
"y.s < R y.j.3.R T 8 2 u [ } +.+.[ R R +.E T [ [ R ) 1 - m m M A *.-.*...' ` D D 7 : : 4 7 D ( A.H.H.L.K.K.K.K.G.D.B.8 5 3 4 3 & ",
"R < > u | | ) p 2 ; ; 2 R [ +.@.[ R [ @.E E @.[ _ +.D - m N N M m D D 1 1 1 1 7 7 4 3 4 7 ' ;.Z.D.H.K.K.K.K.K.G.S.B.D 5 5 3 & * ",
"< > < 6 s y 5 < : o = < p [ @.%.} R O.X.E [ @.R [ %.D m N C N m m m D - - - 6 i k h e 3 4 } h.).Z.D.J.K.K.K.J.S.S.B.D : 3 3 & * ",
"> > : : : : # # : : ; < p ] %.3.+.[ +.+.Y X.1.Y [ @.D m N C M M m m F - - 1 7 k h h h h 4 z 3.h.C.Z.G.J.K.K.G.D.A.B.D : 3 3 & @ ",
": : : = o o + + # # : 5 p [ 3.3.+.} +. .Y @.@.E [ X.D m N C C C C N ' A m 1 7 k v n x j h k } 3.0.U.Z.G.J.K.G.D.A.B.D , 3 3 & & ",
"; o o o + + + + + + # 5 p } 3.3.+.} @.[ Y @.X.R O.O.D M C Z Z Z Z C &.F N D u c d.n j j h k z } 3.0.t.Y.G.J.G.D.A.B.D , 3 3 3 & ",
"# + + o + + + + + + # 5 p ] 3.3.+.| +.R R @.} Y X. .A m C Z H H H Z &.F N D ) t v h 3 4 t i p ) | 3.4.r.Y.G.G.D.A.B.D < 3 3 & & ",
"+ + O O O + + O O O @ 5 p s } %.} } ) p E @.[ R O.' A m C H J J H H L L C F E 6 p s z z p p p s ] | 3.q.U.F.F.A.V.B.F < , & & @ ",
"O O O O O O O O O O + 5 y p ) +.} R p p [ @._ Y } _ A M Z H J J J J K ( Z C W 0.-XuX<X,XXXk.r.9.=.o.@.9.e.C.F.A.V.B.F < # # & O ",
"O O O O O O O O O O + , 6 p s [ [ p u u [ @.Y Y [ Y A M Z J J J J J J L K Z ~ +XlXSXDXDXDXDXDXAXAX<X].u.0.U.Z.V.V.B.F 5 # # # O ",
"O O O O O O O O O O o : < u s ] [ p y u [ } u R _ D A M Z J J J J J J J K K ~ `..X$XhXDXGXGXGXGXGXGXDXiXi.:.C.V.N.B.F < # # # O ",
"O O O O O $ % % % O o : < y s | | s 2 u } R u R R 8 m M Z H J J J J J H K K ~ R.%XwXkXvXDXGXGXGXGXGXDXlX#X5.;.B.N.B.F : # # # O ",
"O O O $ * % % % * O o : < 6 s } } u < u } s u R T 1 m C Z H H G G G V G G G ^ <XlXjXhXlXcXDXDXDXDXDXvXzXiX7.^ B.N.N.F < : & # O ",
"& & & * * 9 9 9 * O o : > 6 y } 4.2 ; y ] u u R 8 1 m C Z V V V V V V V V V S `..X.XhXcXcXDXDXDXDXDXvXcXlXR.^ B.V.N.L 1 # & O O ",
"* * * * 9 9 9 9 * O o o : 6 5 | j.< ; y z 6 u T 1 - N C Z V V V V V V V V B M I / .XzXDXDXDXDXDXDXvXvXcXlX.X^ ( B.N.L 1 # & + O ",
"% % * 0 9 9 9 % * @ o o : 5 5 y p ; > p y 6 6 T 1 - M B B B B B B B B B B M M A U.iXlXlXzXDXDXcXcXcXcXcXzXhX X:.;.M.L 1 : : & + ",
"% % 9 9 9 9 9 % * @ @ o ; 5 y < > ; < y 6 < 6 u 1 - M B B B B B B B B B B M M S R.%XlXlXlXSXDXzXzXcXvXvXvXcXlXiX$X).*.D 6 7 : + ",
"9 9 9 9 9 9 % * * @ o o ; 5 y < > > y y < < 6 6 1 - M M B B M M M M M M B M M A :.R.<XaXlXlXlXlXlXzXvXzXvXvXzXSXSXAX1X[.h.h.` 7 ",
"9 9 % % % % % % * @ o o ; , < < < 5 i u < < 2 6 > - M M M M M M M M M M B M m A I w.`. X%XiXiXiXhXkXzXzXzXvXvXzXSXSX4X4X1X1X&X[.",
"9 % % % % % % @ & # a > ; w U Q Q 8 p Q w P Y 2 Y W S m M m m M M M M C C N N D F *.u.R. X+X%X%X<XhXjXjXjXkXkXzXzX1X*X*X*X*X1X*X",
"c n n v v { v r { Q y.! ! p.Q.p.~.8.<.p.8.p.Q.U 8.Q.P.~ I ~ ~ ^ ^ ~ S ^ S ~ I W / <.u.8.R..X X.XwXhXjXjXfXgXjXkX1X}.*X*X*X*X*X}.",
"<.0X0Xp.Q.0XQ.U Q.6XQ.Q.6XP.W.W.7X8XW.6X7XI.8XP.W.!.!.8XW.qXP.8X9X8XI.9XI.!.P.7X6XW.qXW.7XqXP.W.fXfXgXfXgXgXfX$X$X}.}.}.}.*X{._.",
"w p.W.<.<.Q.p.u.Q.6XW.Q.<.<.W.W.W.!.W.W.!.I.8XQ.~.!.!.8XI.~.~ ~.8X!.I.9X!.~.<.7X7XW.qXW.7XqXQ.Q.7XqXqX!.fXfX$X.X[.}.}.}.}.}._._.",
"# 4 5 : : q r { ,.Q Q Q u w U Q Q ! U U U U U Q P P P I P P 1 I I I I / I I I / ! U ! U Q 1.y.Q Q ! 1.6.qXfX.XR.U.).).).).).).[.",
"              $ $ $               . . . . . X . . . . . . . . . . . . X X . X o o X X X   O & O   O O o 1.#XOXXX].'.oXv.v.=X=X-X"
};
